<?xml version="1.0" encoding="utf-8"?>
<!-- Generator: Adobe Illustrator 20.1.0, SVG Export Plug-In . SVG Version: 6.00 Build 0)  -->
<svg version="1.1" id="Layer_1" xmlns="http://www.w3.org/2000/svg" xmlns:xlink="http://www.w3.org/1999/xlink" x="0px" y="0px"
	 viewBox="0 0 191 107.9" style="enable-background:new 0 0 191 107.9;" xml:space="preserve">
<style type="text/css">
	.st0{fill:#056DA1;}
	.st1{fill:#1896D7;}
	.st2{fill:none;stroke:#ABBFC6;stroke-linecap:square;}
</style>
<g>
	<path class="st0" d="M10.9,26.5L7.1,10.2L5.9,9.6V8.2H14v1.4l-1.6,0.6l2,10.6h0.2l3-12.6h3.8l3.5,12.7H25l2.2-10.7l-1.8-0.6V8.2
		h5.5v1.4l-1.3,0.6l-3.7,16.4h-4.5l-3-11.6h-0.2l-2.8,11.6C15.4,26.5,10.9,26.5,10.9,26.5z M35.2,6.6c1.3,0,2.5,1,2.5,2.4
		s-1.1,2.4-2.5,2.4c-1.4,0-2.4-1-2.4-2.4S33.8,6.6,35.2,6.6z M31.4,13.1l5.7-0.8l0.5,0.1v12.4l1.4,0.6v1.1h-7.5v-1.1l1.5-0.6v-10
		l-1.6-0.6C31.4,14.2,31.4,13.1,31.4,13.1z M39.8,25.4l1.5-0.7v-9.9l-1.5-0.6v-1.1l5.6-0.8l0.6,0.1V14H46c1.2-1.1,3-1.8,4.7-1.8
		c2.4,0,3.5,1.1,3.5,3.7v8.8l1.5,0.7v1.1h-7.4v-1.1l1.3-0.6v-8.1c0-1.4-0.6-2-1.8-2c-0.7,0-1.4,0.2-1.9,0.4v9.7l1.3,0.6v1.1h-7.4
		C39.8,26.5,39.8,25.4,39.8,25.4z M58.1,14.5h-2v-1.2l2-0.7v-2.5l4.6-0.7v3.2h3.1v1.9h-3.1v8.2c0,1.4,0.4,2,1.9,2c0.5,0,1,0,1.3-0.1
		v1.3c-0.8,0.5-2.2,0.9-3.7,0.9c-2.8,0-4.1-1.2-4.1-4.2C58.1,22.6,58.1,14.5,58.1,14.5z M80,19.9h-8.3c0.2,2.9,1.2,4.2,4.3,4.2
		c1.5,0,2.5-0.3,3.5-0.8v1.3c-0.8,1-2.7,2.3-5.4,2.3c-4.7,0-7.2-2.9-7.2-7.4c0-4.5,2.6-7.2,6.9-7.2c4,0,6.1,2,6.1,7.3
		C80,19.6,80,19.9,80,19.9z M73.8,13.7c-1.3,0-2.1,1.4-2.1,4.9l3.9-0.3C75.6,14.7,75,13.7,73.8,13.7z M81,13.1l5.6-0.8l0.5,0.1v3.2
		h0.1c0.7-2.3,1.9-3.4,3.5-3.4c0.3,0,0.5,0,0.7,0.1v4.2c-0.3-0.1-0.7-0.1-1.1-0.1c-1.3,0-2.2,0.1-3,0.5v8l1.9,0.6v1.1h-8v-1.1
		l1.5-0.6v-10L81,14.2C81,14.2,81,13.1,81,13.1z"/>
	<path class="st1" d="M55.8,40.3c0,6.5-4.3,9.6-9,9.6c-5.1,0-8.8-3.2-8.8-9.4c0-6.5,4.3-9.6,9-9.6C52.1,31,55.8,34.1,55.8,40.3z
		 M46.9,32.7c-2.1,0-3,1.7-3,7.7c0,6.2,0.9,7.8,3.1,7.8c2.1,0,3-1.6,3-7.6C49.9,34.2,49,32.7,46.9,32.7z M56.6,30.3l5.7-0.8l0.6,0.1
		v18.3l1.5,0.7v1.1h-7.6v-1.1l1.5-0.7V32l-1.6-0.6V30.3z M67.2,53.2c1.6,0,2.8-0.6,3.4-2.4l0.3-0.7l-5.2-12.6l-1-0.6v-1.1h7.5v1.1
		l-1.5,0.6l2.5,7.3h0.1l2.6-7.3l-1.6-0.7v-1.1h4.7v1.1l-1.2,0.6l-5.1,13.5c-1.2,3.3-2.6,4.4-4.8,4.4c-0.8,0-1.6-0.2-2.3-0.7V53
		C66.2,53.1,66.7,53.2,67.2,53.2z M79.6,48.5l1.5-0.6v-10l-1.5-0.6v-1.1l5.5-0.8l0.6,0.1v1.6h0.2c1.2-1.1,2.5-1.8,4.3-1.8
		c1.6,0,2.6,0.5,3.1,1.8h0.1c1.2-1.1,2.6-1.8,4.5-1.8c2.3,0,3.5,1.2,3.5,3.7v8.8l1.5,0.6v1.1h-7.2v-1.1l1.1-0.6v-8.1
		c0-1.4-0.6-2-1.7-2c-0.6,0-1.2,0.2-1.7,0.4v9.7l1.1,0.6v1.1h-6.8v-1.1l1.2-0.6v-8.1c0-1.4-0.5-2-1.6-2c-0.7,0-1.2,0.2-1.7,0.4v9.7
		l1.1,0.6v1.1h-7.2C79.6,49.6,79.6,48.5,79.6,48.5z M118.4,42.2c0,5.5-3,7.7-6.4,7.7c-1.1,0-2-0.2-2.4-0.5v3.8l1.7,0.6v1.1h-7.8
		v-1.1l1.5-0.6V38l-1.5-0.7v-1.1l5.6-0.8l0.6,0.1v1.6h0.2c0.7-0.8,2-1.7,3.9-1.7C116.2,35.3,118.4,37.2,118.4,42.2L118.4,42.2z
		 M113.5,42.8c0-3.8-0.9-4.9-2.5-4.9c-0.6,0-1.1,0.2-1.5,0.4v9.7c0.3,0.3,0.8,0.5,1.4,0.5C112.5,48.4,113.5,46.9,113.5,42.8
		L113.5,42.8z M123,29.7c1.3,0,2.5,1,2.5,2.4s-1.1,2.4-2.5,2.4c-1.4,0-2.4-1-2.4-2.4C120.5,30.8,121.6,29.7,123,29.7z M119.2,36.2
		l5.7-0.8l0.5,0.1v12.4l1.4,0.6v1.1h-7.5v-1.1l1.5-0.6v-10l-1.6-0.6L119.2,36.2L119.2,36.2z M134.5,50c-4.5,0-6.8-3-6.8-7.4
		c0-4.5,2.9-7.3,7.4-7.3c1.8,0,3.6,0.2,4.4,0.5v4.3h-2.1l-0.8-3.2c-0.3-0.1-0.7-0.2-1.2-0.2c-2,0-3.1,1.7-3.1,5.3
		c0,3.6,1.4,5.1,4.1,5.1c1.4,0,2.4-0.3,3.1-0.7v1.3C138.7,48.9,137.1,50,134.5,50z M147.9,40.5c2.9,0.7,4.2,2,4.2,4.6
		c0,3.1-1.9,4.9-6,4.9c-1.6,0-3.4-0.3-4.8-0.8l-0.2-3.6h1.7l1.1,2.4c0.6,0.3,1.3,0.5,2.2,0.5c1.6,0,2.3-0.7,2.3-1.8
		c0-0.9-0.5-1.4-1.9-1.7l-0.9-0.2c-3-0.7-4.4-2.2-4.4-4.8c0-2.7,1.8-4.7,5.8-4.7c1.6,0,3.2,0.2,4.3,0.6v3.4h-1.7l-0.7-2.2
		c-0.4-0.2-1-0.3-1.8-0.3c-1.4,0-2.1,0.6-2.1,1.6c0,0.9,0.5,1.4,2,1.8L147.9,40.5L147.9,40.5z"/>
	<path class="st0" d="M20,68.1l-0.4,3.8H7.1v-2.2l3.7-3.5c2.9-2.7,4-5.1,4-7.9c0-2.8-0.9-4.4-3.1-4.4l-3.9,5.7H7.4l0.1-5.3
		c1.5-0.6,3.5-0.9,5.8-0.9c4.2,0,6.6,1.7,6.6,5c0,3.3-2.2,5.5-6.8,7.9L9.7,68v0.1H20z M29,72.2c-4.3,0-7.9-3.2-7.9-9.4
		c0-6.5,3.8-9.6,8.1-9.6c4.3,0,7.8,3.1,7.8,9.4C37,69,33.4,72.2,29,72.2z M29.1,71.8c1.8,0,2.4-2.9,2.4-8.9c0-6.3-0.6-9.2-2.5-9.2
		c-1.8,0-2.5,2.9-2.5,8.9C26.5,68.8,27.2,71.8,29.1,71.8z M38.2,71.9v-0.4l2.6-0.8V55.9l-2.6,0.6v-0.6l5.3-2.5h2v17.3l2.5,0.8v0.4
		H38.2z M62.7,67.1c0,3.2-2.5,5.2-7,5.2c-4.6,0-6.7-1.8-6.7-4.6c0-2.5,1.9-4,4.4-4.5c-2.3-1.4-3.6-3-3.6-5.1c0-3,2.2-4.8,6.3-4.8
		c4.4,0,6.1,1.7,6.1,4c0,2.3-1.9,3.5-4.2,4l0.7,0.4C61.3,63.1,62.7,64.4,62.7,67.1z M56.4,60.2l1.1,0.7c0.8-0.9,1.3-2.1,1.3-3.7
		c0-2.3-1-3.5-2.7-3.5c-1.7,0-2.6,1.1-2.6,2.9C53.4,58.4,54.7,59.3,56.4,60.2z M52.6,67.5c0,2.6,1.1,4.3,3.3,4.3
		c1.9,0,3.1-1.3,3.1-3.3c0-1.8-1.2-2.7-2.8-3.6l-2.3-1.4C53.1,64.4,52.6,65.8,52.6,67.5z"/>
	<path class="st2" d="M0.5,1.4v24.8"/>
</g>
</svg>
